<svg width="16" height="16" viewBox="0 0 16 16" fill="none" xmlns="http://www.w3.org/2000/svg">
<g clip-path="url(#clip0_0_1076)">
<path d="M8.00027 3.28491L6.11465 5.17053L7.05746 6.11334L8.94308 4.22772C9.72089 3.4499 10.9937 3.4499 11.7715 4.22772C12.5493 5.00554 12.5493 6.27833 11.7715 7.05615L9.88589 8.94177L10.8287 9.88458L12.7143 7.99896C14.0154 6.69788 14.0154 4.58599 12.7143 3.28491C11.4132 1.98384 9.30134 1.98384 8.00027 3.28491ZM8.94308 9.88458L7.05746 11.7702C6.27964 12.548 5.00685 12.548 4.22903 11.7702C3.45121 10.9924 3.45121 9.71958 4.22903 8.94177L6.11465 7.05615L5.17184 6.11334L3.28622 7.99896C1.98515 9.30003 1.98515 11.4119 3.28622 12.713C4.5873 14.0141 6.69919 14.0141 8.00027 12.713L9.88589 10.8274L8.94308 9.88458ZM5.64324 9.41317L9.41448 5.64193L10.3573 6.58474L6.58605 10.356L5.64324 9.41317Z" fill="#1C4980"/>
</g>
<defs>
<clipPath id="clip0_0_1076">
<rect width="16" height="16" fill="white"/>
</clipPath>
</defs>
</svg>
