<svg width="17" height="16" viewBox="0 0 17 16" fill="none" xmlns="http://www.w3.org/2000/svg">
<g clip-path="url(#clip0_0_1150)">
<path d="M8.18069 3.28492L6.29507 5.17054L7.23788 6.11335L9.1235 4.22773C9.90131 3.44991 11.1741 3.44991 11.9519 4.22773C12.7297 5.00555 12.7297 6.27834 11.9519 7.05616L10.0663 8.94177L11.0091 9.88458L12.8947 7.99897C14.1958 6.69789 14.1958 4.586 12.8947 3.28492C11.5937 1.98384 9.48176 1.98384 8.18069 3.28492ZM9.1235 9.88458L7.23788 11.7702C6.46006 12.548 5.18727 12.548 4.40945 11.7702C3.63163 10.9924 3.63163 9.71959 4.40945 8.94177L6.29507 7.05616L5.35226 6.11335L3.46664 7.99896C2.16557 9.30004 2.16557 11.4119 3.46664 12.713C4.76772 14.0141 6.87961 14.0141 8.18069 12.713L10.0663 10.8274L9.1235 9.88458ZM5.82366 9.41318L9.5949 5.64194L10.5377 6.58475L6.76647 10.356L5.82366 9.41318Z" fill="#1C4980"/>
</g>
<defs>
<clipPath id="clip0_0_1150">
<rect width="16" height="16" fill="white" transform="translate(0.18042)"/>
</clipPath>
</defs>
</svg>
