<svg width="15" height="12" viewBox="0 0 15 12" fill="none" xmlns="http://www.w3.org/2000/svg">
<path fill-rule="evenodd" clip-rule="evenodd" d="M7.31939 3.06167C9.33968 3.06176 11.2828 3.84224 12.7471 5.24181C12.8574 5.34986 13.0336 5.34849 13.1422 5.23875L14.1962 4.16931C14.2512 4.11364 14.2818 4.03825 14.2814 3.9598C14.2809 3.88135 14.2493 3.80632 14.1937 3.75131C10.3505 0.048391 4.2875 0.048391 0.444318 3.75131C0.3887 3.80628 0.357061 3.88129 0.356605 3.95973C0.356058 4.03818 0.386694 4.11361 0.441582 4.16931L1.49595 5.23875C1.60445 5.34867 1.78078 5.35002 1.89102 5.24181C3.3554 3.84215 5.29874 3.06167 7.31939 3.06167ZM7.31939 6.54103C8.42937 6.54097 9.49987 6.95579 10.3227 7.70489C10.434 7.81121 10.6093 7.8089 10.7178 7.6997L11.7706 6.63025C11.8261 6.57416 11.8568 6.49806 11.856 6.41899C11.8551 6.3399 11.8229 6.26445 11.7663 6.2095C9.26063 3.86615 5.38025 3.86615 2.87454 6.2095C2.81791 6.26445 2.78564 6.33994 2.78482 6.41905C2.78409 6.49815 2.815 6.57424 2.87052 6.63025L3.92306 7.6997C4.03147 7.8089 4.20681 7.81121 4.31813 7.70489C5.14045 6.95628 6.21004 6.54149 7.31939 6.54103ZM9.42821 8.88203C9.42985 8.96133 9.39885 9.03778 9.34259 9.09333L7.52144 10.9411C7.4681 10.9953 7.39525 11.0259 7.31939 11.0259C7.24344 11.0259 7.17059 10.9953 7.11725 10.9411L5.29582 9.09333C5.23956 9.03774 5.20865 8.96126 5.21029 8.88197C5.21194 8.80267 5.24613 8.72757 5.30466 8.67442C6.46771 7.68544 8.17098 7.68544 9.33402 8.67442C9.39256 8.72762 9.42666 8.80273 9.42821 8.88203Z" fill="black"/>
</svg>
