<svg width="29" height="12" viewBox="0 0 29 12" fill="none" xmlns="http://www.w3.org/2000/svg">
<path d="M3.86719 11.5444C6.55517 11.5444 8.15185 9.44238 8.15185 5.88281C8.15185 4.54248 7.89551 3.41455 7.40478 2.54297C6.69433 1.18799 5.47119 0.455566 3.92578 0.455566C1.62598 0.455566 0 2.00098 0 4.16895C0 6.20508 1.46484 7.68457 3.479 7.68457C4.7168 7.68457 5.72021 7.10596 6.21826 6.10254H6.24023C6.24023 6.10254 6.26953 6.10254 6.27685 6.10254C6.2915 6.10254 6.34277 6.10254 6.34277 6.10254C6.34277 8.51953 5.42725 9.9624 3.88184 9.9624C2.97363 9.9624 2.27051 9.46435 2.02881 8.66601H0.146484C0.461426 10.4019 1.93359 11.5444 3.86719 11.5444ZM3.9331 6.1831C2.71728 6.1831 1.85303 5.31885 1.85303 4.11035C1.85303 2.93115 2.76123 2.03027 3.94043 2.03027C5.11963 2.03027 6.02783 2.9458 6.02783 4.13965C6.02783 5.31885 5.1416 6.1831 3.9331 6.1831Z" fill="black"/>
<path d="M11.243 11.4419C11.9388 11.4419 12.4148 10.9438 12.4148 10.2847C12.4148 9.61816 11.9388 9.12744 11.243 9.12744C10.5545 9.12744 10.0711 9.61816 10.0711 10.2847C10.0711 10.9438 10.5545 11.4419 11.243 11.4419ZM11.243 5.94873C11.9388 5.94873 12.4148 5.45801 12.4148 4.79883C12.4148 4.13232 11.9388 3.6416 11.243 3.6416C10.5545 3.6416 10.0711 4.13232 10.0711 4.79883C10.0711 5.45801 10.5545 5.94873 11.243 5.94873Z" fill="black"/>
<path d="M19.2706 11.2881H21.0797V9.31787H22.5079V7.72119H21.0797V0.719238H18.4137C16.546 3.53174 15.0592 5.88281 14.107 7.6333V9.31787H19.2706V11.2881ZM15.8575 7.65527C17.088 5.4873 18.1866 3.75146 19.1974 2.25732H19.2999V7.76514H15.8575V7.65527Z" fill="black"/>
<path d="M26.5365 11.2881H28.4262V0.719238H26.5438L23.7826 2.65283V4.46924L26.412 2.62353H26.5365V11.2881Z" fill="black"/>
</svg>
