<svg width="23" height="11" viewBox="0 0 23 11" fill="none" xmlns="http://www.w3.org/2000/svg">
<path opacity="0.35" d="M0.996201 2.72458C0.996201 1.62768 1.88061 0.738464 2.97172 0.738464H18.1677C19.2588 0.738464 20.1433 1.62768 20.1433 2.72458V8.22458C20.1433 9.32144 19.2588 10.2107 18.1677 10.2107H2.97172C1.88061 10.2107 0.996201 9.32144 0.996201 8.22458V2.72458Z" stroke="black"/>
<path opacity="0.4" d="M21.504 3.64081V7.30747C22.2377 6.99693 22.7148 6.27451 22.7148 5.47414C22.7148 4.67377 22.2377 3.95136 21.504 3.64081Z" fill="black"/>
<path d="M2.35753 3.1218C2.35753 2.56491 2.80657 2.11346 3.36047 2.11346H17.7664C18.3203 2.11346 18.7693 2.56491 18.7693 3.1218V7.82735C18.7693 8.38424 18.3203 8.83569 17.7664 8.83569H3.36047C2.80657 8.83569 2.35753 8.38424 2.35753 7.82736V3.1218Z" fill="#F7CE45"/>
</svg>
