<svg width="17" height="16" viewBox="0 0 17 16" fill="none" xmlns="http://www.w3.org/2000/svg">
<g clip-path="url(#clip0_1667_370)">
<path d="M8.18064 3.28492L6.29502 5.17054L7.23783 6.11335L9.12344 4.22773C9.90126 3.44991 11.1741 3.44991 11.9519 4.22773C12.7297 5.00555 12.7297 6.27834 11.9519 7.05616L10.0663 8.94177L11.0091 9.88458L12.8947 7.99897C14.1958 6.69789 14.1958 4.586 12.8947 3.28492C11.5936 1.98384 9.48171 1.98384 8.18064 3.28492ZM9.12344 9.88458L7.23783 11.7702C6.46001 12.548 5.18722 12.548 4.4094 11.7702C3.63158 10.9924 3.63158 9.71959 4.4094 8.94177L6.29502 7.05616L5.35221 6.11335L3.46659 7.99896C2.16551 9.30004 2.16551 11.4119 3.46659 12.713C4.76767 14.0141 6.87956 14.0141 8.18064 12.713L10.0663 10.8274L9.12344 9.88458ZM5.82361 9.41318L9.59485 5.64194L10.5377 6.58475L6.76642 10.356L5.82361 9.41318Z" fill="#1C4980"/>
</g>
<defs>
<clipPath id="clip0_1667_370">
<rect width="16" height="16" fill="white" transform="translate(0.180374)"/>
</clipPath>
</defs>
</svg>
