<svg width="17" height="16" viewBox="0 0 17 16" fill="none" xmlns="http://www.w3.org/2000/svg">
<g clip-path="url(#clip0_0_1270)">
<path d="M8.18069 3.28489L6.29507 5.17051L7.23788 6.11332L9.1235 4.2277C9.90131 3.44988 11.1741 3.44988 11.9519 4.2277C12.7297 5.00552 12.7297 6.27831 11.9519 7.05613L10.0663 8.94174L11.0091 9.88455L12.8947 7.99893C14.1958 6.69786 14.1958 4.58597 12.8947 3.28489C11.5937 1.98381 9.48176 1.98381 8.18069 3.28489ZM9.1235 9.88455L7.23788 11.7702C6.46006 12.548 5.18727 12.548 4.40945 11.7702C3.63163 10.9924 3.63163 9.71956 4.40945 8.94174L6.29507 7.05613L5.35226 6.11332L3.46664 7.99893C2.16557 9.30001 2.16557 11.4119 3.46664 12.713C4.76772 14.0141 6.87961 14.0141 8.18069 12.713L10.0663 10.8274L9.1235 9.88455ZM5.82366 9.41315L9.5949 5.64191L10.5377 6.58472L6.76647 10.356L5.82366 9.41315Z" fill="#1C4980"/>
</g>
<defs>
<clipPath id="clip0_0_1270">
<rect width="16" height="16" fill="white" transform="translate(0.18042)"/>
</clipPath>
</defs>
</svg>
