<svg width="17" height="16" viewBox="0 0 17 16" fill="none" xmlns="http://www.w3.org/2000/svg">
<g clip-path="url(#clip0_0_1110)">
<path d="M8.18069 3.28491L6.29507 5.17053L7.23788 6.11334L9.1235 4.22772C9.90131 3.4499 11.1741 3.4499 11.9519 4.22772C12.7297 5.00554 12.7297 6.27833 11.9519 7.05615L10.0663 8.94177L11.0091 9.88458L12.8947 7.99896C14.1958 6.69788 14.1958 4.58599 12.8947 3.28491C11.5937 1.98384 9.48176 1.98384 8.18069 3.28491ZM9.1235 9.88458L7.23788 11.7702C6.46006 12.548 5.18727 12.548 4.40945 11.7702C3.63163 10.9924 3.63163 9.71958 4.40945 8.94177L6.29507 7.05615L5.35226 6.11334L3.46664 7.99896C2.16557 9.30003 2.16557 11.4119 3.46664 12.713C4.76772 14.0141 6.87961 14.0141 8.18069 12.713L10.0663 10.8274L9.1235 9.88458ZM5.82366 9.41317L9.5949 5.64193L10.5377 6.58474L6.76647 10.356L5.82366 9.41317Z" fill="#1C4980"/>
</g>
<defs>
<clipPath id="clip0_0_1110">
<rect width="16" height="16" fill="white" transform="translate(0.18042)"/>
</clipPath>
</defs>
</svg>
