<svg width="17" height="16" viewBox="0 0 17 16" fill="none" xmlns="http://www.w3.org/2000/svg">
<g clip-path="url(#clip0_1667_585)">
<path d="M8.59044 3.28492L6.70482 5.17054L7.64763 6.11335L9.53325 4.22773C10.3111 3.44991 11.5839 3.44991 12.3617 4.22773C13.1395 5.00555 13.1395 6.27834 12.3617 7.05616L10.4761 8.94177L11.4189 9.88458L13.3045 7.99897C14.6056 6.69789 14.6056 4.586 13.3045 3.28492C12.0034 1.98384 9.89152 1.98384 8.59044 3.28492ZM9.53325 9.88458L7.64763 11.7702C6.86981 12.548 5.59702 12.548 4.8192 11.7702C4.04139 10.9924 4.04139 9.71959 4.8192 8.94177L6.70482 7.05616L5.76201 6.11335L3.87639 7.99896C2.57532 9.30004 2.57532 11.4119 3.87639 12.713C5.17747 14.0141 7.28936 14.0141 8.59044 12.713L10.4761 10.8274L9.53325 9.88458ZM6.23342 9.41318L10.0047 5.64194L10.9475 6.58475L7.17623 10.356L6.23342 9.41318Z" fill="#1C4980"/>
</g>
<defs>
<clipPath id="clip0_1667_585">
<rect width="16" height="16" fill="white" transform="translate(0.590179)"/>
</clipPath>
</defs>
</svg>
